<svg id="bold" enable-background="new 0 0 24 24" height="512" viewBox="0 0 24 24" width="512" xmlns="http://www.w3.org/2000/svg"><path d="m20 16c-1.103 0-2-.897-2-2s.897-2 2-2 2 .897 2 2-.897 2-2 2z"/><path d="m4 16c-1.103 0-2-.897-2-2s.897-2 2-2 2 .897 2 2-.897 2-2 2z"/><path d="m12 16.5c-1.654 0-3-1.346-3-3s1.346-3 3-3 3 1.346 3 3-1.346 3-3 3z"/><path d="m16.75 23h-9.5c-.414 0-.75-.336-.75-.75v-1.5c0-1.517 1.233-2.75 2.75-2.75h5.5c1.517 0 2.75 1.233 2.75 2.75v1.5c0 .414-.336.75-.75.75z"/><path d="m21.25 17h-2.5c-.32 0-.62.05-.9.15 1.177 1.026 1.65 2.303 1.65 3.85h3.75c.41 0 .75-.34.75-.75v-.5c0-1.52-1.23-2.75-2.75-2.75z"/><path d="m5.25 17h-2.5c-1.52 0-2.75 1.23-2.75 2.75v.5c0 .41.34.75.75.75h3.75c0-1.547.473-2.824 1.65-3.85-.28-.1-.58-.15-.9-.15z"/><path d="m15.467 9h-6.934c-.361 0-.67-.257-.737-.611l-.783-4.167c-.111-.591.486-1.069 1.041-.824l1.68.746 1.618-2.771c.27-.461 1.026-.461 1.296 0l1.618 2.771 1.68-.746c.551-.244 1.152.231 1.042.824l-.783 4.167c-.067.354-.377.611-.738.611z"/></svg>