<?xml version="1.0"?>
<svg xmlns="http://www.w3.org/2000/svg" id="Solid" viewBox="0 0 512 512" width="512" height="512"><path d="M327.768,170.5a56.01,56.01,0,1,0-31.629-54.239A72.026,72.026,0,0,1,327.768,170.5Z"/><circle cx="256" cy="176" r="56"/><path d="M184.232,170.5a72.026,72.026,0,0,1,31.629-54.239A55.961,55.961,0,1,0,184.232,170.5Z"/><path d="M218.881,237.669a72.287,72.287,0,0,1-32.222-42.331A108.472,108.472,0,0,0,160,192C90.842,192,34.318,257.465,32.07,338.952a352.283,352.283,0,0,0,83.244,25.184C126.8,302.737,167.151,253.784,218.881,237.669Z"/><path d="M312,323.313l-74.343,74.344a8,8,0,0,1-11.314,0L192,363.313,171.314,384,232,444.687,332.687,344Z"/><path d="M352,192a108.466,108.466,0,0,0-26.659,3.338,72.291,72.291,0,0,1-32.222,42.331c51.729,16.115,92.076,65.066,103.566,126.464a352.251,352.251,0,0,0,83.246-25.181C477.682,257.465,421.158,192,352,192Z"/><path d="M256,248c-69.158,0-125.682,65.466-127.931,146.953a348.569,348.569,0,0,0,49.166,17.6l-22.892-22.892a8,8,0,0,1,0-11.314l32-32a8,8,0,0,1,11.314,0L232,380.687l74.343-74.344a8,8,0,0,1,11.314,0l32,32a8,8,0,0,1,0,11.314l-73.506,73.506c50.635-4.07,94.094-22.032,107.78-28.214C381.682,313.462,325.158,248,256,248Z"/></svg>
