<?xml version="1.0" encoding="iso-8859-1"?>
<!-- Generator: Adobe Illustrator 16.0.0, SVG Export Plug-In . SVG Version: 6.00 Build 0)  -->
<!DOCTYPE svg PUBLIC "-//W3C//DTD SVG 1.1//EN" "http://www.w3.org/Graphics/SVG/1.1/DTD/svg11.dtd">
<svg version="1.1" id="Capa_1" xmlns="http://www.w3.org/2000/svg" xmlns:xlink="http://www.w3.org/1999/xlink" x="0px" y="0px"
	 width="30.001px" height="30.001px" viewBox="0 0 30.001 30.001" style="enable-background:new 0 0 30.001 30.001;"
	 xml:space="preserve">
<g>
	<g>
		<path d="M4.292,28.572c0-2.021,0-3.791,0-5.503c-0.122-0.098-0.163-0.154-0.216-0.167c-3.069-0.754-4.074-2.031-4.074-5.188
			c0-3.875-0.006-7.75,0.003-11.625C0.011,3.183,1.726,1.45,4.65,1.442c6.92-0.016,13.838-0.019,20.759-0.001
			c2.877,0.008,4.575,1.743,4.583,4.614c0.009,3.506,0.013,7.012,0.002,10.519c-0.013,3.964-2.243,6.248-6.22,6.296
			c-3.598,0.043-7.195,0.028-10.794-0.002c-0.781-0.007-1.402,0.199-2.021,0.677C8.823,25.197,6.649,26.802,4.292,28.572z
			 M7.197,22.793c1.145-0.852,2.119-1.632,3.154-2.321c0.403-0.268,0.942-0.459,1.421-0.464c4.058-0.035,8.116-0.013,12.174-0.022
			c2.073-0.006,3.188-1.133,3.189-3.196c0.004-3.505,0.001-7.011-0.001-10.517c-0.001-1.524-0.455-1.989-1.957-1.99
			C18.353,4.277,11.527,4.276,4.701,4.275c-1.269,0-1.83,0.514-1.834,1.764c-0.014,4.059-0.016,8.117-0.001,12.176
			c0.005,1.299,0.497,1.754,1.811,1.771c0.814,0.011,1.63,0.002,2.521,0.002C7.197,20.971,7.197,21.786,7.197,22.793z"/>
		<path d="M14.289,10.002c-2.334,0-4.669,0.005-7.003-0.003C6.62,9.997,5.998,9.763,5.867,9.073
			C5.781,8.619,5.875,8.012,6.133,7.648c0.216-0.303,0.787-0.49,1.203-0.494c4.577-0.036,9.152-0.032,13.729-0.024
			c1.14,0.001,1.776,0.533,1.791,1.418c0.017,0.91-0.652,1.45-1.842,1.454c-2.242,0.009-4.484,0.003-6.728,0.003
			C14.289,10.004,14.289,10.003,14.289,10.002z"/>
		<path d="M12.926,15.721c-1.812,0.001-3.623,0.006-5.435-0.001c-1.102-0.005-1.764-0.553-1.764-1.437
			C5.726,13.394,6.36,12.869,7.5,12.865c3.562-0.009,7.122-0.011,10.684-0.002c1.234,0.003,1.815,0.502,1.787,1.472
			c-0.025,0.902-0.637,1.381-1.794,1.384C16.426,15.724,14.676,15.721,12.926,15.721z"/>
	</g>
</g>
<g>
</g>
<g>
</g>
<g>
</g>
<g>
</g>
<g>
</g>
<g>
</g>
<g>
</g>
<g>
</g>
<g>
</g>
<g>
</g>
<g>
</g>
<g>
</g>
<g>
</g>
<g>
</g>
<g>
</g>
</svg>
