<svg xmlns="http://www.w3.org/2000/svg" height="512pt" version="1.1" viewBox="-47 0 512 512.00002" width="512pt">
<g id="surface1">
<path d="M 305.441406 71.636719 L 305.441406 0 L 137.230469 0 C 115.363281 0 97.785156 18.019531 97.785156 39.882812 L 97.785156 375.429688 C 97.785156 397.296875 115.367188 415.3125 137.230469 415.3125 L 378.066406 415.3125 C 399.933594 415.3125 417.511719 397.292969 417.511719 375.429688 L 417.511719 117.5625 L 352.027344 117.5625 C 326.539062 117.5625 305.441406 97.015625 305.441406 71.636719 Z M 187.21875 214.796875 C 190.734375 211.503906 196.230469 211.722656 199.527344 215.238281 L 248.308594 267.976562 L 248.308594 142.503906 C 248.308594 137.667969 252.265625 133.714844 257.097656 133.714844 C 261.933594 133.714844 265.886719 137.667969 265.886719 142.503906 L 265.886719 268.085938 L 315.21875 215.347656 C 318.515625 211.832031 324.339844 211.613281 327.964844 214.90625 C 331.480469 218.203125 331.699219 223.808594 328.40625 227.324219 L 264.019531 296.433594 C 262.371094 298.191406 260.066406 299.179688 257.539062 299.179688 C 255.011719 299.179688 252.8125 298.191406 251.054688 296.433594 L 186.78125 227.324219 C 183.484375 223.699219 183.59375 218.203125 187.21875 214.796875 Z M 356.863281 353.785156 C 356.863281 358.621094 352.90625 362.574219 348.074219 362.574219 L 167.222656 362.574219 C 162.390625 362.574219 158.433594 358.621094 158.433594 353.785156 C 158.433594 348.953125 162.390625 344.996094 167.222656 344.996094 L 348.183594 344.996094 C 353.015625 344.996094 356.863281 348.953125 356.863281 353.785156 Z M 356.863281 353.785156 " style=" stroke:none;fill-rule:nonzero;fill:rgb(0%,0%,0%);fill-opacity:1;" />
<path d="M 352.027344 99.984375 L 405.972656 99.984375 L 323.023438 13.515625 L 323.023438 71.636719 C 323.023438 87.347656 336.207031 99.984375 352.027344 99.984375 Z M 352.027344 99.984375 " style=" stroke:none;fill-rule:nonzero;fill:rgb(0%,0%,0%);fill-opacity:1;" />
<path d="M 80.207031 375.429688 L 80.207031 49.664062 C 62.625 53.617188 49.441406 69.4375 49.441406 88.226562 L 49.441406 423.773438 C 49.441406 445.636719 67.023438 463.65625 88.886719 463.65625 L 329.722656 463.65625 C 348.511719 463.65625 364.222656 450.472656 368.289062 432.894531 L 137.230469 432.894531 C 105.695312 432.894531 80.207031 406.964844 80.207031 375.429688 Z M 80.207031 375.429688 " style=" stroke:none;fill-rule:nonzero;fill:rgb(0%,0%,0%);fill-opacity:1;" />
<path d="M 31.863281 423.773438 L 31.863281 97.785156 C 13.183594 101.410156 0 117.453125 0 136.570312 L 0 472.117188 C 0 493.980469 17.578125 512 39.445312 512 L 280.28125 512 C 299.070312 512 314.78125 498.816406 318.847656 481.234375 L 88.886719 481.234375 C 57.351562 481.234375 31.863281 455.304688 31.863281 423.773438 Z M 31.863281 423.773438 " style=" stroke:none;fill-rule:nonzero;fill:rgb(0%,0%,0%);fill-opacity:1;" />
</g>
</svg>