<?xml version="1.0" encoding="iso-8859-1"?>
<!-- Generator: Adobe Illustrator 19.0.0, SVG Export Plug-In . SVG Version: 6.00 Build 0)  -->
<svg version="1.1" id="Capa_1" xmlns="http://www.w3.org/2000/svg" xmlns:xlink="http://www.w3.org/1999/xlink" x="0px" y="0px"
	 viewBox="0 0 274.3 274.3" style="enable-background:new 0 0 274.3 274.3;" xml:space="preserve">
<g>
	<g>
		<path d="M258.2,15.9c-21.2-21.2-56-21.2-77.2,0l-59.2,59.2c-33.2-7.2-69.6,1.6-95.6,27.6L99,175.1l72.4,72.4
			c26-25.6,35.2-62,27.6-95.2l59.2-59.2C279.4,71.9,279.4,37.1,258.2,15.9z"/>
	</g>
</g>
<g>
	<g>
		<path d="M75.8,181.1l-72,72.8c-2.4,2-3.6,5.2-3.6,8.4c0,2.8,1.2,6,3.6,8.4c2,2.4,5.2,3.6,8.4,3.6c2.8,0,6-1.2,8.4-3.6L93,198.3
			L75.8,181.1z"/>
	</g>
</g>
<g>
</g>
<g>
</g>
<g>
</g>
<g>
</g>
<g>
</g>
<g>
</g>
<g>
</g>
<g>
</g>
<g>
</g>
<g>
</g>
<g>
</g>
<g>
</g>
<g>
</g>
<g>
</g>
<g>
</g>
</svg>
