<?xml version="1.0" encoding="iso-8859-1"?>
<!-- Generator: Adobe Illustrator 16.0.0, SVG Export Plug-In . SVG Version: 6.00 Build 0)  -->
<!DOCTYPE svg PUBLIC "-//W3C//DTD SVG 1.1//EN" "http://www.w3.org/Graphics/SVG/1.1/DTD/svg11.dtd">
<svg version="1.1" id="Capa_1" xmlns="http://www.w3.org/2000/svg" xmlns:xlink="http://www.w3.org/1999/xlink" x="0px" y="0px"
	 width="360.544px" height="360.544px" viewBox="0 0 360.544 360.544" style="enable-background:new 0 0 360.544 360.544;"
	 xml:space="preserve">
<g>
	<g>
		<path d="M69.233,360.544h222.08c31.597,0,57.312-25.714,57.312-57.316V130.262V81.153v-5.38c0-28.141-24.844-51.07-55.691-51.861
			v0.006v12.458v0.013v12.528v0.024v7.115c0,18.261-14.857,33.122-33.125,33.122c-18.262,0-33.125-14.861-33.125-33.122v-7.283
			v-12.47V23.833h-93.901v12.471v12.47v7.283c0,18.261-14.857,33.122-33.122,33.122c-18.261,0-33.122-14.861-33.122-33.122v-7.009
			v-0.043V36.441v-0.013V23.97v-0.013c-30.345,1.291-54.62,23.998-54.62,51.81v5.38v49.109v172.966
			C11.919,334.831,37.634,360.544,69.233,360.544z M323.684,130.262v172.966c0,17.854-14.522,32.376-32.37,32.376H69.233
			c-17.851,0-32.373-14.522-32.373-32.376V130.262H323.684z"/>
		<path d="M141.183,307.478c10.543,8.805,24.101,13.262,40.283,13.262c20.167,0,35.634-6.411,45.961-19.059
			c10.083-12.373,15.198-26.628,15.198-42.362c0-18.206-5.462-32.376-16.233-42.106c-10.645-9.615-23.273-14.492-37.559-14.492
			c-7.032,0-13.149,0.95-18.206,2.838c-1.035,0.39-2.159,0.895-3.413,1.547l3.081-18.804c0.188-1.157,1.464-2.229,2.625-2.229
			h52.534c6.017,0,10.912-4.896,10.912-10.915v-14.094c0-6.016-4.896-10.911-10.912-10.911h-75.097
			c-5.806,0-10.924,4.515-11.661,10.269l-9.597,75.557c-0.38,2.96,0.451,5.815,2.326,8.05c1.875,2.241,4.552,3.544,7.538,3.69
			l16.125,0.743c5.033,0,9.947-3.191,12.863-6.175c1.571-1.607,3.431-2.776,5.617-3.562c2.271-0.779,5.069-1.175,8.336-1.175
			c6.436,0,10.973,2.082,13.871,6.345c3.245,4.798,4.896,10.827,4.896,17.957c0,7.191-1.735,13.183-5.151,17.799
			c-3.143,4.231-7.709,6.284-13.938,6.284c-5.432,0-9.334-1.328-11.94-4.08c-1.9-2.01-3.429-4.695-4.546-7.989
			c-1.802-5.347-6.926-9.219-12.203-9.219h-18.706c-3.105,0-5.998,1.31-7.937,3.604c-1.863,2.205-2.661,5.127-2.177,8.025
			C126.255,289.308,132.009,299.812,141.183,307.478z"/>
		<path d="M99.661,70.473c7.965,0,14.416-6.455,14.416-14.416v-7.283v-12.47V23.833v-9.417C114.077,6.455,107.625,0,99.661,0
			c-7.961,0-14.416,6.455-14.416,14.417v9.417v12.471v12.47v7.283C85.245,64.018,91.699,70.473,99.661,70.473z"/>
		<path d="M259.814,70.473c7.965,0,14.413-6.455,14.413-14.416v-7.283v-12.47V23.833v-9.417C274.228,6.455,267.779,0,259.814,0
			c-7.958,0-14.413,6.455-14.413,14.417v9.417v12.471v12.47v7.283C245.401,64.018,251.856,70.473,259.814,70.473z"/>
	</g>
</g>
<g>
</g>
<g>
</g>
<g>
</g>
<g>
</g>
<g>
</g>
<g>
</g>
<g>
</g>
<g>
</g>
<g>
</g>
<g>
</g>
<g>
</g>
<g>
</g>
<g>
</g>
<g>
</g>
<g>
</g>
</svg>
