<?xml version="1.0" encoding="iso-8859-1"?>
<!-- Generator: Adobe Illustrator 19.0.0, SVG Export Plug-In . SVG Version: 6.00 Build 0)  -->
<svg version="1.1" id="Capa_1" xmlns="http://www.w3.org/2000/svg" xmlns:xlink="http://www.w3.org/1999/xlink" x="0px" y="0px"
	 viewBox="0 0 512 512" style="enable-background:new 0 0 512 512;" xml:space="preserve">
<path style="fill:#5BDDFC;" d="M420.586,432.426H20.372c-6.586,0-11.975-5.389-11.975-11.975V20.239
	c0-6.586,5.389-11.975,11.975-11.975h400.213c6.586,0,11.975,5.389,11.975,11.975v400.213
	C432.561,427.037,427.172,432.426,420.586,432.426z"/>
<path style="fill:#00C3FF;" d="M28.356,420.451V20.239c0-6.586,5.389-11.975,11.975-11.975H20.372
	c-6.586,0-11.975,5.389-11.975,11.975v400.213c0,6.586,5.389,11.975,11.975,11.975H40.33
	C33.744,432.426,28.356,427.037,28.356,420.451z"/>
<path style="fill:#E4EAF8;" d="M504.747,504.743H93.637c-3.68,0-6.664-2.984-6.664-6.664V86.969c0-3.68,2.984-6.664,6.664-6.664
	h411.11c3.68,0,6.664,2.984,6.664,6.664v411.11C511.412,501.759,508.428,504.743,504.747,504.743z"/>
<path style="fill:#D8DCE5;" d="M106.931,498.079V86.969c0-3.68,2.984-6.664,6.664-6.664H93.637c-3.68,0-6.664,2.984-6.664,6.664
	v411.11c0,3.68,2.984,6.664,6.664,6.664h19.958C109.915,504.743,106.931,501.759,106.931,498.079z"/>
<path style="fill:#00C3FF;" d="M464.927,464.649H133.457c-3.53,0-6.392-2.862-6.392-6.392V126.789c0-3.53,2.862-6.392,6.392-6.392
	h331.469c3.53,0,6.392,2.862,6.392,6.392v331.469C471.318,461.788,468.456,464.649,464.927,464.649z"/>
<path style="fill:#00AAF0;" d="M147.025,458.259V126.789c0-3.53,2.861-6.392,6.392-6.392h-19.958c-3.53,0-6.392,2.862-6.392,6.392
	v331.469c0,3.53,2.862,6.392,6.392,6.392h19.958C149.886,464.649,147.025,461.788,147.025,458.259z"/>
<path style="fill:#9BF57D;" d="M471.318,458.335v-30.4l-88.908-119.562c-4.536-6.1-11.891-6.1-16.428,0L249.775,464.65h215.228
	C468.491,464.65,471.318,461.822,471.318,458.335z"/>
<g>
	<path style="fill:#7CE854;" d="M382.411,308.372c-4.536-6.1-11.891-6.1-16.428,0L249.775,464.65h20.93l113.957-153.251
		L382.411,308.372z"/>
	<path style="fill:#7CE854;" d="M257.052,279.327c-5.38-7.234-14.101-7.234-19.481,0L127.066,427.935v30.726
		c0,3.308,2.681,5.989,5.989,5.989h116.719l72.542-97.556L257.052,279.327z"/>
</g>
<path style="fill:#6FD844;" d="M147.025,458.661v-30.726l110.267-148.287l-0.239-0.321c-5.38-7.234-14.101-7.234-19.48,0
	L127.068,427.935v30.726c0,3.308,2.681,5.989,5.989,5.989h19.958C149.706,464.65,147.025,461.969,147.025,458.661z"/>
<circle style="fill:#FFC850;" cx="332.423" cy="218.482" r="33.23"/>
<path style="fill:#F9B428;" d="M319.15,218.484c0-14.873,9.774-27.461,23.247-31.699c-3.15-0.991-6.502-1.527-9.979-1.527
	c-18.351,0-33.226,14.876-33.226,33.226s14.876,33.226,33.226,33.226c3.478,0,6.829-0.537,9.979-1.527
	C328.924,245.946,319.15,233.357,319.15,218.484z"/>
<path d="M126.01,112.685c-7.651,0-13.875,6.225-13.875,13.876c0,2.902,0,326.6,0,331.432v0.036c0,7.651,6.224,13.876,13.875,13.876
	h0.037c5.146,0,327.535,0,331.241,0h0.192c7.651,0,13.876-6.225,13.876-13.876v-0.192c0-4.919,0-328.414,0-331.277
	c0-7.651-6.225-13.876-13.876-13.876L126.01,112.685L126.01,112.685z M456.387,127.653v277.444l-75.417-101.42
	c-3.588-4.826-8.771-7.593-14.219-7.593c0.998,0-7.867-0.948-14.221,7.593l-37.66,50.646l-59.258-79.691
	c-3.992-5.367-9.731-8.444-15.747-8.444c-6.016,0-11.755,3.079-15.745,8.444l-97.016,130.466V127.653H456.387z M127.103,430.182
	l109.028-146.62c1.155-1.553,2.48-2.407,3.733-2.407c1.254,0,2.581,0.854,3.735,2.408l61.942,83.301
	c-9.373,12.606-60.84,81.822-66.976,90.072H127.103V430.182z M456.387,456.937H257.22c3.119-4.195,104.996-141.202,107.32-144.328
	c1.531-2.056,2.895-2.049,4.418,0l87.429,117.574L456.387,456.937L456.387,456.937z"/>
<path d="M324.971,258.965c22.447,0,40.71-18.263,40.71-40.71c0-22.448-18.263-40.711-40.71-40.711
	c-22.448,0-40.711,18.263-40.711,40.711C284.26,240.704,302.522,258.965,324.971,258.965z M324.971,192.514
	c14.194,0,25.741,11.548,25.741,25.742c0,14.194-11.547,25.741-25.741,25.741s-25.742-11.547-25.742-25.741
	C299.229,204.061,310.777,192.514,324.971,192.514z"/>
<path d="M377.778,14.969h-7.071c-4.134,0-7.484-3.351-7.484-7.484S366.573,0,370.707,0h7.071c4.134,0,7.484,3.351,7.484,7.484
	S381.912,14.969,377.778,14.969z"/>
<path d="M335.349,14.969h-7.072c-4.134,0-7.484-3.351-7.484-7.484S324.143,0,328.277,0h7.072c4.134,0,7.484,3.351,7.484,7.484
	S339.484,14.969,335.349,14.969z"/>
<path d="M123.202,14.969h-7.072c-4.134,0-7.484-3.351-7.484-7.484S111.995,0,116.13,0h7.072c4.134,0,7.484,3.351,7.484,7.484
	S127.336,14.969,123.202,14.969z"/>
<path d="M420.207,14.969h-7.071c-4.134,0-7.484-3.351-7.484-7.484S409.002,0,413.136,0h7.071c4.134,0,7.484,3.351,7.484,7.484
	S424.342,14.969,420.207,14.969z"/>
<path d="M80.773,14.969h-7.071c-4.134,0-7.484-3.351-7.484-7.484S69.567,0,73.702,0h7.071c4.134,0,7.484,3.351,7.484,7.484
	S84.906,14.969,80.773,14.969z"/>
<path d="M250.49,14.969h-7.071c-4.134,0-7.484-3.351-7.484-7.484S239.285,0,243.419,0h7.071c4.134,0,7.484,3.351,7.484,7.484
	S254.623,14.969,250.49,14.969z"/>
<path d="M208.06,14.969h-7.071c-4.134,0-7.484-3.351-7.484-7.484S196.854,0,200.989,0h7.071c4.134,0,7.484,3.351,7.484,7.484
	S212.194,14.969,208.06,14.969z"/>
<path d="M165.632,14.969h-7.072c-4.134,0-7.484-3.351-7.484-7.484S154.425,0,158.56,0h7.072c4.134,0,7.484,3.351,7.484,7.484
	S169.765,14.969,165.632,14.969z"/>
<path d="M292.919,14.969h-7.072c-4.134,0-7.484-3.351-7.484-7.484S281.713,0,285.847,0h7.072c4.134,0,7.484,3.351,7.484,7.484
	S297.053,14.969,292.919,14.969z"/>
<path d="M8.035,181.839c4.134,0,7.484,3.351,7.484,7.484v7.071c0,4.134-3.35,7.484-7.484,7.484s-7.484-3.35-7.484-7.484v-7.071
	C0.551,185.19,3.901,181.839,8.035,181.839z"/>
<path d="M432.475,45.131c-4.134,0-7.484-3.351-7.484-7.484v-7.071c0-4.133,3.35-7.484,7.484-7.484c4.134,0,7.484,3.351,7.484,7.484
	v7.071C439.959,41.78,436.609,45.131,432.475,45.131z"/>
<path d="M8.035,224.269c4.134,0,7.484,3.35,7.484,7.484v7.071c0,4.134-3.35,7.484-7.484,7.484s-7.484-3.35-7.484-7.484v-7.071
	C0.551,227.619,3.901,224.269,8.035,224.269z"/>
<path d="M8.035,12.122c4.134,0,7.484,3.351,7.484,7.484v7.071c0,4.133-3.35,7.484-7.484,7.484s-7.484-3.351-7.484-7.484v-7.071
	C0.551,15.473,3.901,12.122,8.035,12.122z"/>
<path d="M8.035,266.697c4.134,0,7.484,3.35,7.484,7.484v7.072c0,4.134-3.35,7.484-7.484,7.484s-7.484-3.35-7.484-7.484v-7.072
	C0.551,270.048,3.901,266.697,8.035,266.697z"/>
<path d="M8.035,54.551c4.134,0,7.484,3.351,7.484,7.484v7.071c0,4.133-3.35,7.484-7.484,7.484s-7.484-3.351-7.484-7.484v-7.071
	C0.551,57.902,3.901,54.551,8.035,54.551z"/>
<path d="M8.035,96.981c4.134,0,7.484,3.351,7.484,7.484v7.071c0,4.133-3.35,7.484-7.484,7.484s-7.484-3.351-7.484-7.484v-7.071
	C0.551,100.332,3.901,96.981,8.035,96.981z"/>
<path d="M8.035,139.41c4.134,0,7.484,3.351,7.484,7.484v7.071c0,4.133-3.35,7.484-7.484,7.484s-7.484-3.351-7.484-7.484v-7.071
	C0.551,142.761,3.901,139.41,8.035,139.41z"/>
<path d="M23.787,7.484c0-4.133,3.35-7.484,7.484-7.484h7.071c4.134,0,7.484,3.351,7.484,7.484s-3.35,7.484-7.484,7.484h-7.071
	C27.138,14.969,23.787,11.618,23.787,7.484z"/>
<path d="M62.441,424.44h7.072c0.889,0,1.737,0.163,2.528,0.447V321.032c0-4.134,3.35-7.484,7.484-7.484
	c4.134,0,7.484,3.35,7.484,7.484v175.999h409.471V87.561H309.209c-4.134,0-7.484-3.351-7.484-7.484c0-4.133,3.35-7.484,7.484-7.484
	h115.802c0.216-3.94,3.469-7.071,7.463-7.071c3.995,0,7.248,3.131,7.463,7.071H497.3c7.802,0,14.149,6.347,14.149,14.148v411.11
	c0,7.802-6.347,14.149-14.149,14.149H86.189c-7.802,0-14.149-6.347-14.149-14.149v-58.89c-0.79,0.284-1.64,0.447-2.528,0.447H62.44
	c-4.134,0-7.484-3.35-7.484-7.484S58.307,424.44,62.441,424.44z"/>
<path d="M20.011,424.44h7.072c4.134,0,7.484,3.35,7.484,7.484s-3.35,7.484-7.484,7.484h-7.072c-4.134,0-7.484-3.35-7.484-7.484
	S15.877,424.44,20.011,424.44z"/>
<path d="M8.035,393.986c4.134,0,7.484,3.35,7.484,7.484v7.071c0,4.134-3.35,7.484-7.484,7.484s-7.484-3.35-7.484-7.484v-7.071
	C0.551,397.336,3.901,393.986,8.035,393.986z"/>
<path d="M8.035,351.556c4.134,0,7.484,3.35,7.484,7.484v7.071c0,4.134-3.35,7.484-7.484,7.484s-7.484-3.35-7.484-7.484v-7.071
	C0.551,354.907,3.901,351.556,8.035,351.556z"/>
<path d="M8.035,309.127c4.134,0,7.484,3.35,7.484,7.484v7.072c0,4.134-3.35,7.484-7.484,7.484s-7.484-3.35-7.484-7.484v-7.072
	C0.551,312.477,3.901,309.127,8.035,309.127z"/>
<path d="M281.767,80.076c0,4.133-3.35,7.484-7.484,7.484H87.01v198.545c0,4.134-3.35,7.484-7.484,7.484
	c-4.134,0-7.484-3.35-7.484-7.484V86.74c0-7.802,6.347-14.148,14.149-14.148h188.092C278.416,72.592,281.767,75.943,281.767,80.076z
	"/>
<g>
</g>
<g>
</g>
<g>
</g>
<g>
</g>
<g>
</g>
<g>
</g>
<g>
</g>
<g>
</g>
<g>
</g>
<g>
</g>
<g>
</g>
<g>
</g>
<g>
</g>
<g>
</g>
<g>
</g>
</svg>
