<?xml version="1.0" encoding="iso-8859-1"?>
<!-- Generator: Adobe Illustrator 19.0.0, SVG Export Plug-In . SVG Version: 6.00 Build 0)  -->
<svg version="1.1" id="Layer_1" xmlns="http://www.w3.org/2000/svg" xmlns:xlink="http://www.w3.org/1999/xlink" x="0px" y="0px"
	 viewBox="0 0 512.555 512.555" style="enable-background:new 0 0 512.555 512.555;" xml:space="preserve">
<path style="fill:#FFD15C;" d="M512.255,303.489c-1.067-20.267-21.333-37.333-41.6-37.333h-13.867
	c21.333,0,39.467-18.133,39.467-39.467l0,0c0-21.333-18.133-39.467-39.467-39.467h-147.2c26.667-94.933,4.267-138.667,4.267-138.667
	c-36.267-66.133-82.133-48-94.933-40.533c-2.133,1.067-3.2,3.2-3.2,6.4l6.4,42.667c6.4,42.667-4.267,85.333-29.867,120.533
	l-67.2,89.6v219.733c0,9.6,7.467,17.067,17.067,17.067h170.667h83.2h50.133c20.267,0,40.533-17.067,41.6-37.333
	c1.067-22.4-17.067-41.6-39.467-41.6c21.333,0,39.467-18.133,39.467-39.467s-18.133-39.467-39.467-39.467h24.533
	C495.189,345.089,513.322,325.889,512.255,303.489z"/>
<path style="opacity:0.1;fill:#231F20;enable-background:new    ;" d="M128.255,250.155l-3.2,16v219.733
	c0,9.6,7.467,17.067,17.067,17.067h5.333c1.067-3.2,2.133-7.467,2.133-10.667V285.355
	C149.589,270.422,141.055,256.555,128.255,250.155L128.255,250.155z"/>
<path style="fill:#40596B;" d="M112.255,232.022H21.589c-11.733,0-21.333,9.6-21.333,21.333v237.867
	c0,11.733,9.6,21.333,21.333,21.333h90.667c11.733,0,21.333-9.6,21.333-21.333V253.355
	C133.589,241.622,123.989,232.022,112.255,232.022z"/>
<circle style="fill:#FF7058;" cx="67.455" cy="464.555" r="27.733"/>
<path style="fill:#F2F2F2;" d="M215.722,13.355c0,0,16,6.4,20.267,28.8c3.2,12.8,0,27.733-11.733,33.067L215.722,13.355z"/>
<g>
</g>
<g>
</g>
<g>
</g>
<g>
</g>
<g>
</g>
<g>
</g>
<g>
</g>
<g>
</g>
<g>
</g>
<g>
</g>
<g>
</g>
<g>
</g>
<g>
</g>
<g>
</g>
<g>
</g>
</svg>
