<svg id="Capa_1" enable-background="new 0 0 512 512" height="512" viewBox="0 0 512 512" width="512" xmlns="http://www.w3.org/2000/svg"><path d="m391 512c-49.626 0-90-40.374-90-90 0-1.567.063-3.1.17-4.59l-110.313-72.248c-16.65 10.393-35.416 15.838-54.857 15.838-57.897 0-105-47.103-105-105s47.103-105 105-105c19.441 0 38.207 5.445 54.857 15.839l110.313-72.249c-.107-1.49-.17-3.023-.17-4.59 0-49.626 40.374-90 90-90s90 40.374 90 90-40.374 90-90 90c-14.301 0-28.262-3.389-40.904-9.873l-110.124 72.13c.689 4.734 1.028 9.285 1.028 13.743s-.339 9.009-1.028 13.743l110.124 72.13c12.642-6.484 26.603-9.873 40.904-9.873 49.626 0 90 40.374 90 90s-40.374 90-90 90z"/></svg>