<?xml version="1.0" encoding="iso-8859-1"?>
<!-- Generator: Adobe Illustrator 16.0.0, SVG Export Plug-In . SVG Version: 6.00 Build 0)  -->
<!DOCTYPE svg PUBLIC "-//W3C//DTD SVG 1.1//EN" "http://www.w3.org/Graphics/SVG/1.1/DTD/svg11.dtd">
<svg version="1.1" id="Capa_1" xmlns="http://www.w3.org/2000/svg" xmlns:xlink="http://www.w3.org/1999/xlink" x="0px" y="0px"
	 width="45.187px" height="45.188px" viewBox="0 0 45.187 45.188" style="enable-background:new 0 0 45.187 45.188;"
	 xml:space="preserve">
<g>
	<g>
		<path d="M0,18.961h4.842V6.052c0-0.446,0.362-0.807,0.807-0.807H18.56V0.404H5.649C2.535,0.404,0,2.939,0,6.053V18.961z"/>
		<path d="M39.539,0.403h-12.91v4.841h12.91c0.445,0,0.807,0.362,0.807,0.807v12.91h4.842V6.052
			C45.189,2.938,42.654,0.403,39.539,0.403z"/>
		<path d="M4.842,39.136V26.225H0v12.911c0,3.113,2.535,5.648,5.649,5.648H18.56v-4.842H5.649
			C5.204,39.942,4.842,39.58,4.842,39.136z"/>
		<path d="M40.346,39.136c0,0.446-0.362,0.807-0.807,0.807H26.628v4.842h12.91c3.115,0,5.648-2.536,5.648-5.65V26.225h-4.842
			L40.346,39.136L40.346,39.136z"/>
		<circle cx="22.594" cy="22.594" r="6.455"/>
	</g>
</g>
<g>
</g>
<g>
</g>
<g>
</g>
<g>
</g>
<g>
</g>
<g>
</g>
<g>
</g>
<g>
</g>
<g>
</g>
<g>
</g>
<g>
</g>
<g>
</g>
<g>
</g>
<g>
</g>
<g>
</g>
</svg>
